<?xml version="1.0" encoding="UTF-8" standalone="no"?>
<svg
   xmlns:dc="http://purl.org/dc/elements/1.1/"
   xmlns:cc="http://creativecommons.org/ns#"
   xmlns:rdf="http://www.w3.org/1999/02/22-rdf-syntax-ns#"
   xmlns:svg="http://www.w3.org/2000/svg"
   xmlns="http://www.w3.org/2000/svg"
   viewBox="0 0 762.65332 378.70667"
   height="378.70667"
   width="762.65332"
   xml:space="preserve"
   id="svg2"
   version="1.1"><metadata
     id="metadata8"><rdf:RDF><cc:Work
         rdf:about=""><dc:format>image/svg+xml</dc:format><dc:type
           rdf:resource="http://purl.org/dc/dcmitype/StillImage" /></cc:Work></rdf:RDF></metadata><defs
     id="defs6" /><g
     transform="matrix(1.3333333,0,0,-1.3333333,0,378.70667)"
     id="g10"><g
       transform="scale(0.1)"
       id="g12"><path
         id="path14"
         style="fill:#231f20;fill-opacity:1;fill-rule:nonzero;stroke:none"
         d="m 573.668,49.2188 c -17.711,0 -35.32,8.4101 -46.523,24.4101 C 78.6992,708.781 3.5625,1406.85 19.3711,1880.61 c 17.1094,512.27 138.2739,870.46 143.4769,885.47 10.605,30.92 43.422,47.03 73.441,36.12 29.813,-11 45.524,-44.93 34.918,-75.84 -1.203,-3.5 -121.066,-358.9 -137.074,-853.76 C 119.426,1418.66 191.863,750.102 620.094,143.57 638.699,117.059 633.102,79.9414 607.484,60.6211 597.281,52.9219 585.375,49.2188 573.668,49.2188" /><path
         id="path16"
         style="fill:#231f20;fill-opacity:1;fill-rule:nonzero;stroke:none"
         d="M 2048,0 C 1475.49,0 824.645,314.969 433.031,664.66 153.785,913.988 0,1180.74 0,1415.86 c 0,330.68 450.344,897.99 872.566,1403.86 20.715,24.82 57.032,27.61 81.145,6.2 24.012,-21.41 26.719,-58.93 5.902,-83.74 -295.156,-353.7 -844.652,-1012.04 -844.652,-1326.32 0,-200.1 139.68,-434.93 393.309,-661.45 555.5,-495.961 1291.9,-688.2694 1732.14,-621.828 31.51,4.598 60.63,-17.723 65.23,-50.1328 4.6,-32.4179 -17.21,-62.6406 -48.53,-67.3281 C 2189.08,4.80078 2119.14,0 2048,0" /><path
         id="path18"
         style="fill:#231f20;fill-opacity:1;fill-rule:nonzero;stroke:none"
         d="m 866.777,710.398 c -118.562,0 -160.785,72.434 -160.785,140.372 0,294.86 649.648,602.12 824.138,658.25 30.22,9.71 62.54,-7.8 71.94,-39.12 9.4,-31.31 -7.5,-64.53 -37.82,-74.24 -254.44,-81.84 -743.199,-368.19 -743.199,-544.89 0,-8.508 0,-21.211 43.324,-21.61 26.113,7.801 102.258,76.039 152.785,121.461 128.46,115.269 218.42,190.809 295.35,190.809 46.63,0 85.95,-31.22 123.97,-61.34 21.42,-17 53.83,-42.82 68.44,-42.82 73.84,0 140.37,51.13 210.71,105.26 73.14,56.43 148.88,114.56 239.73,114.56 41.62,0 78.54,-26.02 114.16,-51.23 25.91,-18.41 58.23,-41.22 78.24,-41.22 28.42,0 49.33,18.11 83.85,50.03 42.62,39.52 95.75,88.74 183.6,88.74 75.84,0 132.27,-39.52 192,-81.34 80.94,-56.73 172.79,-121.06 352.39,-121.06 68.04,0 118.17,14.6 181.7,33.12 82.14,23.91 184.3,53.62 353.19,53.62 196,0 369.8,-50.12 571,-108.16 359.8,-103.75 807.54,-233.02 1587.26,-95.149 31.22,5.508 60.94,-16.211 66.34,-48.519 5.3,-32.32 -15.72,-62.942 -47.03,-68.543 -804.94,-142.27 -1266.58,-9.098 -1637.49,97.851 -193.09,55.73 -359.89,103.86 -540.08,103.86 -152.98,0 -242.73,-26.21 -321.98,-49.23 -66.33,-19.31 -128.96,-37.622 -212.91,-37.622 -214.91,0 -331.68,81.852 -416.92,141.582 -50.53,35.32 -86.95,60.93 -127.47,60.93 -41.62,0 -67.74,-22.21 -106.86,-58.43 -38.62,-35.82 -86.74,-80.44 -160.59,-80.44 -55.72,0 -104.25,34.41 -143.27,62.03 -16.41,11.61 -41.02,29.01 -50.23,30.52 -51.63,0 -109.06,-44.23 -169.99,-91.05 -78.44,-60.439 -167.29,-128.771 -279.35,-128.771 -53.73,0 -98.75,35.821 -138.58,67.332 -16.51,13.207 -44.22,35.219 -54.72,36.819 -38.72,0 -155.99,-105.248 -219.02,-161.78 C 982.234,762.02 922.105,710.398 866.777,710.398" /><path
         id="path20"
         style="fill:#231f20;fill-opacity:1;fill-rule:nonzero;stroke:none"
         d="m 3568.02,1288.74 c -2.61,0 -5.11,0.11 -7.7,0.31 -54.93,4.5 -81.85,31.61 -94.76,53.63 -33.61,56.92 -5,127.56 8.81,161.48 12.21,30.22 45.93,44.43 75.23,31.82 29.22,-12.61 43.03,-47.43 30.82,-77.74 -11,-27.12 -14.51,-41.93 -15.41,-49.83 8.61,5.6 24.62,20.21 36.63,31.22 36.81,33.51 87.14,79.54 162.28,113.36 88.75,40.02 188.6,52.82 304.77,39.22 31.62,-3.7 54.22,-33.02 50.73,-65.54 -3.51,-32.71 -32.12,-56.23 -63.64,-52.42 -215.32,25.21 -313.07,-64.34 -377.9,-123.47 -36.23,-33.22 -67.84,-62.04 -109.86,-62.04" /></g></g></svg>